<mxfile host="app.diagrams.net" modified="2024-01-08T01:25:27.900Z" agent="Mozilla/5.0 (Windows NT 10.0; Win64; x64) AppleWebKit/537.36 (KHTML, like Gecko) Chrome/120.0.0.0 Safari/537.36" etag="I3ibX8apv0U9tsBmTCMY" version="22.1.17" type="github">
  <diagram name="第 1 页" id="7ssoi6EnkKL8qnQMHh6J">
    <mxGraphModel dx="1562" dy="892" grid="1" gridSize="10" guides="1" tooltips="1" connect="1" arrows="1" fold="1" page="1" pageScale="1" pageWidth="827" pageHeight="1169" math="0" shadow="0">
      <root>
        <mxCell id="0" />
        <mxCell id="1" parent="0" />
        <mxCell id="Zgpwbv9MW10taTukSVXn-3" style="edgeStyle=orthogonalEdgeStyle;rounded=0;orthogonalLoop=1;jettySize=auto;html=1;" edge="1" parent="1" source="Zgpwbv9MW10taTukSVXn-1" target="Zgpwbv9MW10taTukSVXn-2">
          <mxGeometry relative="1" as="geometry" />
        </mxCell>
        <mxCell id="Zgpwbv9MW10taTukSVXn-1" value="调用vss-analysis成功" style="rounded=0;whiteSpace=wrap;html=1;" vertex="1" parent="1">
          <mxGeometry x="300" y="100" width="120" height="60" as="geometry" />
        </mxCell>
        <mxCell id="Zgpwbv9MW10taTukSVXn-5" style="edgeStyle=orthogonalEdgeStyle;rounded=0;orthogonalLoop=1;jettySize=auto;html=1;exitX=0.5;exitY=1;exitDx=0;exitDy=0;entryX=0.5;entryY=0;entryDx=0;entryDy=0;" edge="1" parent="1" source="Zgpwbv9MW10taTukSVXn-2" target="Zgpwbv9MW10taTukSVXn-4">
          <mxGeometry relative="1" as="geometry" />
        </mxCell>
        <mxCell id="Zgpwbv9MW10taTukSVXn-2" value="发送kafka消息" style="rhombus;whiteSpace=wrap;html=1;" vertex="1" parent="1">
          <mxGeometry x="320" y="210" width="80" height="80" as="geometry" />
        </mxCell>
        <mxCell id="Zgpwbv9MW10taTukSVXn-7" style="edgeStyle=orthogonalEdgeStyle;rounded=0;orthogonalLoop=1;jettySize=auto;html=1;exitX=0.5;exitY=1;exitDx=0;exitDy=0;entryX=0.5;entryY=0;entryDx=0;entryDy=0;" edge="1" parent="1" source="Zgpwbv9MW10taTukSVXn-4" target="Zgpwbv9MW10taTukSVXn-6">
          <mxGeometry relative="1" as="geometry" />
        </mxCell>
        <mxCell id="Zgpwbv9MW10taTukSVXn-4" value="接受kafka消息，将对应Redis相关的字段+1" style="rounded=0;whiteSpace=wrap;html=1;" vertex="1" parent="1">
          <mxGeometry x="300" y="360" width="120" height="60" as="geometry" />
        </mxCell>
        <mxCell id="Zgpwbv9MW10taTukSVXn-9" style="edgeStyle=orthogonalEdgeStyle;rounded=0;orthogonalLoop=1;jettySize=auto;html=1;exitX=0.5;exitY=1;exitDx=0;exitDy=0;" edge="1" parent="1" source="Zgpwbv9MW10taTukSVXn-6" target="Zgpwbv9MW10taTukSVXn-8">
          <mxGeometry relative="1" as="geometry" />
        </mxCell>
        <mxCell id="Zgpwbv9MW10taTukSVXn-6" value="每五分钟全局读取一次Redis对应的值" style="rounded=0;whiteSpace=wrap;html=1;" vertex="1" parent="1">
          <mxGeometry x="300" y="500" width="120" height="60" as="geometry" />
        </mxCell>
        <mxCell id="Zgpwbv9MW10taTukSVXn-8" value="入库" style="rounded=0;whiteSpace=wrap;html=1;" vertex="1" parent="1">
          <mxGeometry x="300" y="650" width="120" height="60" as="geometry" />
        </mxCell>
      </root>
    </mxGraphModel>
  </diagram>
</mxfile>
